# xmcd
#
# Track frame offsets:
# 150
# 14745
# 27228
# 41815
# 55260
# 71318
# 92774
# 107970
# 122659
# 139142
# 154818
# 168427
#
# Disc length: 2529 seconds
#
#
# Revision: 0
# Processed by: cddbd v1.5.2PL0 Copyright (c) Steve Scherf et al.
# Submitted via: FreeRIP 2.951 
#
DISCID=a509df0c
DTITLE=Rhett Akins - What's Living All About
DYEAR=1998
DGENRE=Country
TTITLE0=Better Than It Used To Be
TTITLE1=Happy As We Wanna Be
TTITLE2=More Than Everything
TTITLE3=I'll Be Right Here Lovin' You
TTITLE4=Not In The Cards
TTITLE5=What Livin's All About
TTITLE6=She's Got Everyting Money Can't Buy
TTITLE7=Ain't That Just Like A Woman
TTITLE8=Dream The Rest
TTITLE9=Love rules
TTITLE10=I'm Finding Out
TTITLE11=The Rest Of Forever
EXTD=
EXTT0=
EXTT1=
EXTT2=
EXTT3=
EXTT4=
EXTT5=
EXTT6=
EXTT7=
EXTT8=
EXTT9=
EXTT10=
EXTT11=
PLAYORDER=
